<svg width="356" height="117" viewBox="0 0 356 117" fill="none" xmlns="http://www.w3.org/2000/svg">
<path d="M16.1987 33.2887L59 8.57735L101.801 33.2887V82.7113L59 107.423L16.1987 82.7113V33.2887Z" stroke="#EC7210"/>
<path d="M9.33751 30.116L58.5 1.73205L107.662 30.116V86.884L58.5 115.268L9.33751 86.884V30.116Z" stroke="#EC7210" stroke-width="3"/>
<path d="M50.4077 44.1904C51.1441 44.5299 51.9438 44.7018 52.7515 44.694C53.9554 44.6764 55.1312 44.3196 56.1499 43.6628C56.3222 43.5422 56.46 43.3767 56.5488 43.1833C56.6377 42.99 56.6745 42.7759 56.6553 42.5632C56.6362 42.3504 56.5619 42.1468 56.4401 41.9733C56.3183 41.7998 56.1533 41.6627 55.9624 41.5763C55.5002 41.3797 55.0862 41.081 54.7499 40.7017C54.4136 40.3224 54.1634 39.8717 54.0171 39.3819C53.9534 39.0639 53.7688 38.7848 53.504 38.606C53.2392 38.4272 52.9158 38.3634 52.605 38.4286C52.2942 38.4938 52.0214 38.6827 51.8467 38.9536C51.672 39.2246 51.6096 39.5555 51.6733 39.8735C51.9009 40.7679 52.3396 41.5914 52.9507 42.2718C52.404 42.3183 51.855 42.2192 51.3569 41.984C51.2161 41.9201 51.0644 41.8853 50.9104 41.8815C50.7565 41.8776 50.6033 41.9049 50.4596 41.9617C50.3159 42.0185 50.1846 42.1037 50.0732 42.2125C49.9617 42.3212 49.8723 42.4514 49.81 42.5956C49.7458 42.7403 49.7103 42.8966 49.7056 43.0555C49.7009 43.2143 49.7272 43.3725 49.7828 43.5209C49.8384 43.6693 49.9223 43.8049 50.0295 43.9199C50.1368 44.0348 50.2654 44.1268 50.4077 44.1904Z" fill="#F0C244"/>
<path d="M55.271 55.8219C55.3813 55.9725 55.5247 56.0944 55.6896 56.1777C55.8545 56.261 56.0363 56.3035 56.2202 56.3016C56.4359 56.3 56.6469 56.2375 56.8301 56.121C57.0132 56.0045 57.1615 55.8386 57.2584 55.6415C57.3553 55.4443 57.3972 55.2236 57.3794 55.0037C57.3617 54.7838 57.285 54.5731 57.1577 54.395C56.5366 53.5196 56.689 51.5291 56.9702 50.282C56.9702 50.1381 57.0405 50.0062 57.064 49.8743C57.0986 49.7207 57.1033 49.5617 57.0779 49.4063C57.0525 49.2509 56.9974 49.1021 56.9157 48.9685C56.8341 48.8349 56.7276 48.719 56.6022 48.6276C56.4768 48.5361 56.3351 48.4707 56.185 48.4353C56.035 48.3999 55.8796 48.395 55.7277 48.4211C55.5759 48.4471 55.4305 48.5035 55.2999 48.587C55.1693 48.6705 55.0561 48.7795 54.9667 48.9078C54.8773 49.0361 54.8134 49.1811 54.7788 49.3347L54.7085 49.6105C54.5047 50.3975 54.046 51.0905 53.4074 51.5763C52.7688 52.062 51.9881 52.3117 51.1929 52.2845C50.8821 52.2845 50.584 52.4109 50.3642 52.6357C50.1444 52.8606 50.021 53.1656 50.021 53.4836C50.021 53.8017 50.1444 54.1067 50.3642 54.3316C50.584 54.5564 50.8821 54.6828 51.1929 54.6828C52.3501 54.691 53.4852 54.358 54.4624 53.7235C54.5718 54.477 54.8484 55.1948 55.271 55.8219Z" fill="#F0C244"/>
<path d="M49.81 46.5647C49.9137 46.43 49.988 46.2742 50.0278 46.1077C50.0677 45.9412 50.0722 45.7679 50.041 45.5994C50.0098 45.431 49.9437 45.2714 49.8472 45.1313C49.7506 44.9912 49.6258 44.8739 49.4812 44.7874C49.3365 44.7009 49.1755 44.6471 49.0088 44.6296C48.8422 44.6122 48.6738 44.6315 48.515 44.6863C48.3563 44.7411 48.2109 44.8301 48.0886 44.9472C47.9663 45.0644 47.87 45.2071 47.8061 45.3656C47.1733 46.3009 46.564 48.4473 47.9819 49.8983C48.2002 50.1198 48.4948 50.2447 48.8022 50.246C48.9565 50.2469 49.1093 50.2167 49.2521 50.157C49.3949 50.0973 49.5248 50.0094 49.6343 49.8983C49.7441 49.7868 49.8313 49.6542 49.8908 49.508C49.9503 49.3619 49.9809 49.2052 49.9809 49.0469C49.9809 48.8886 49.9503 48.7318 49.8908 48.5857C49.8313 48.4396 49.7441 48.307 49.6343 48.1955C49.189 47.7398 49.7983 46.6007 49.81 46.5647Z" fill="#F0C244"/>
<path d="M54.7671 33.77C54.6146 33.7934 54.4682 33.8474 54.3362 33.9288C54.2042 34.0102 54.0891 34.1175 53.9977 34.2445C53.9063 34.3715 53.8402 34.5157 53.8033 34.6688C53.7664 34.822 53.7594 34.9811 53.7827 35.137C53.829 35.4496 53.9942 35.7309 54.2422 35.9195C54.4902 36.1082 54.801 36.1889 55.1069 36.1443C55.1069 36.1443 55.435 36.1443 55.5171 36.3721C55.5986 36.6203 55.7573 36.8344 55.9689 36.9816C56.1805 37.1288 56.4334 37.2011 56.689 37.1875C56.8209 37.186 56.9516 37.1616 57.0757 37.1156C57.3543 36.9957 57.5769 36.7704 57.697 36.4866C57.8171 36.2028 57.8254 35.8826 57.7202 35.5927C57.5118 34.9849 57.103 34.4705 56.564 34.1378C56.025 33.8052 55.3896 33.6751 54.7671 33.77Z" fill="#F0C244"/>
<path d="M56.4663 57.6566C55.9061 57.6776 55.3596 57.8396 54.8752 58.1282C54.3907 58.4169 53.9833 58.8233 53.689 59.3114C53.5536 59.5934 53.5318 59.9184 53.6282 60.2167C53.7247 60.5149 53.9316 60.7625 54.2046 60.9063C54.357 60.9856 54.5257 61.0267 54.6968 61.0262C54.9209 61.0267 55.1405 60.9615 55.3295 60.8382C55.5185 60.715 55.669 60.5388 55.7632 60.3307C56.003 60.1648 56.2827 60.0694 56.5718 60.0549C56.8826 60.0342 57.1726 59.888 57.3781 59.6485C57.5836 59.409 57.6877 59.0958 57.6675 58.7778C57.6473 58.4598 57.5044 58.163 57.2704 57.9527C57.0363 57.7425 56.7302 57.6359 56.4194 57.6566H56.4663Z" fill="#F0C244"/>
<path d="M77.6421 46.9844C77.6368 46.1554 77.4715 45.3357 77.1558 44.5722C76.84 43.8088 76.3801 43.1167 75.8022 42.5356C75.9667 41.9673 76.0496 41.3776 76.0483 40.7849C76.0474 39.2189 75.4708 37.7107 74.433 36.5598C73.3951 35.409 71.9721 34.6999 70.4468 34.5734C70.4021 34.3499 70.3434 34.1296 70.271 33.9139C69.9619 32.875 69.392 31.9372 68.6182 31.194C67.8444 30.4508 66.8938 29.9282 65.861 29.6783C64.8282 29.4283 63.7495 29.4598 62.7323 29.7696C61.7151 30.0793 60.7951 30.6566 60.064 31.4437C59.3361 30.6591 58.4209 30.0821 57.4087 29.7698C56.3964 29.4575 55.3221 29.4206 54.2917 29.6627C53.2613 29.9048 52.3103 30.4176 51.5326 31.1505C50.7549 31.8833 50.1774 32.811 49.8569 33.8419C49.783 34.0645 49.7281 34.2932 49.6929 34.5254C48.1573 34.6497 46.7247 35.3643 45.6833 36.5257C44.6419 37.687 44.0689 39.2088 44.0796 40.7849C44.0783 41.3776 44.1612 41.9673 44.3257 42.5356C43.7479 43.1167 43.2879 43.8088 42.9721 44.5722C42.6564 45.3357 42.4911 46.1554 42.4858 46.9844C42.4866 47.8112 42.6487 48.6295 42.9627 49.3914C43.2766 50.1533 43.736 50.8433 44.314 51.4211C44.1606 51.9793 44.0818 52.5561 44.0796 53.1359C44.0807 54.6841 44.6436 56.1766 45.6591 57.3243C46.6745 58.4719 48.0703 59.1929 49.5757 59.3474C49.5852 59.938 49.68 60.5239 49.8569 61.0861C50.166 62.125 50.7359 63.0628 51.5097 63.806C52.2835 64.5492 53.2341 65.0718 54.2669 65.3217C55.2997 65.5717 56.3784 65.5402 57.3956 65.2304C58.4128 64.9207 59.3328 64.3434 60.064 63.5563C60.7918 64.3409 61.707 64.9179 62.7192 65.2302C63.7315 65.5425 64.8058 65.5794 65.8362 65.3373C66.8666 65.0952 67.8176 64.5824 68.5953 63.8495C69.373 63.1167 69.9505 62.189 70.271 61.1581C70.4703 60.5748 70.5848 59.9647 70.6108 59.3474C72.1162 59.1929 73.512 58.4719 74.5274 57.3243C75.5429 56.1766 76.1058 54.6841 76.1069 53.1359C76.1047 52.5561 76.0259 51.9793 75.8725 51.4211C76.4399 50.8384 76.8885 50.146 77.1923 49.3844C77.496 48.6228 77.6489 47.807 77.6421 46.9844ZM55.6694 63.0887C54.8667 63.096 54.0835 62.8355 53.4386 62.3464C52.7936 61.8574 52.322 61.1666 52.0952 60.3786C51.9784 60.0149 51.919 59.6344 51.9194 59.2515C51.9191 58.9642 51.9545 58.6781 52.0249 58.4001C52.0753 58.2032 52.076 57.9964 52.0268 57.7992C51.9776 57.602 51.8801 57.4209 51.7436 57.2729C51.6344 57.1523 51.502 57.0561 51.3549 56.99C51.2077 56.924 51.0489 56.8897 50.8882 56.8892H50.6655C50.5019 56.9061 50.337 56.9061 50.1733 56.8892C49.1788 56.8892 48.2249 56.4849 47.5217 55.7653C46.8184 55.0457 46.4233 54.0697 46.4233 53.052C46.4265 52.498 46.5422 51.9508 46.7632 51.4451C46.8732 51.193 46.8948 50.9098 46.8243 50.6432C46.7538 50.3767 46.5957 50.1432 46.3765 49.9822C45.9095 49.6391 45.5268 49.1897 45.2583 48.6695C44.9899 48.1493 44.8431 47.5725 44.8296 46.9844C44.8368 46.3807 44.9827 45.7872 45.2555 45.2518C45.5283 44.7165 45.9203 44.2543 46.3999 43.9026C46.6178 43.7377 46.7731 43.5006 46.8393 43.2316C46.9056 42.9627 46.8786 42.6786 46.7632 42.4277C46.4949 41.8409 46.3758 41.1943 46.4168 40.5478C46.4577 39.9013 46.6575 39.2759 46.9975 38.7294C47.3376 38.183 47.8069 37.7332 48.3621 37.4217C48.9172 37.1102 49.5402 36.9472 50.1733 36.9477C50.2981 36.9374 50.4235 36.9374 50.5483 36.9477C50.7141 36.98 50.8847 36.9753 51.0485 36.9339C51.2124 36.8925 51.3655 36.8154 51.4975 36.7078C51.6329 36.5925 51.7411 36.4475 51.8142 36.2835C51.8872 36.1195 51.9232 35.9407 51.9194 35.7605C51.9165 35.3539 51.9758 34.9493 52.0952 34.5614C52.3178 33.8584 52.7341 33.2362 53.2939 32.7694C53.8538 32.3027 54.5335 32.0113 55.2513 31.9302C55.9691 31.8492 56.6945 31.9819 57.3404 32.3126C57.9862 32.6432 58.525 33.1576 58.8921 33.794V61.194C58.5657 61.7724 58.0958 62.2523 57.5299 62.585C56.9639 62.9177 56.3221 63.0915 55.6694 63.0887ZM73.7515 50.0661C73.5322 50.2271 73.3741 50.4606 73.3036 50.7272C73.2331 50.9937 73.2547 51.2769 73.3647 51.5291C73.5857 52.0348 73.7014 52.582 73.7046 53.1359C73.7046 54.1536 73.3095 55.1296 72.6062 55.8492C71.903 56.5688 70.9491 56.9731 69.9546 56.9731C69.7909 56.99 69.626 56.99 69.4624 56.9731C69.2676 56.9348 69.0665 56.9477 68.878 57.0107C68.6894 57.0736 68.5195 57.1844 68.3843 57.3328C68.2478 57.4809 68.1503 57.662 68.1011 57.8592C68.0519 58.0564 68.0526 58.2632 68.103 58.46C68.1734 58.7381 68.2088 59.0242 68.2085 59.3114C68.2114 59.7181 68.1521 60.1227 68.0327 60.5105C67.817 61.2187 67.4048 61.8475 66.8462 62.3202C66.2875 62.793 65.6066 63.0893 64.8864 63.1732C64.1661 63.257 63.4375 63.1248 62.7894 62.7926C62.1412 62.4604 61.6015 61.9425 61.2358 61.302V33.794C61.6043 33.1541 62.1468 32.6379 62.7971 32.3082C63.4475 31.9785 64.1775 31.8497 64.8982 31.9374C65.6189 32.0251 66.2991 32.3256 66.8557 32.8022C67.4123 33.2788 67.8212 33.9109 68.0327 34.6214C68.1544 35.0087 68.2138 35.4137 68.2085 35.8205C68.2113 35.9956 68.2516 36.1679 68.3266 36.3253C68.4015 36.4828 68.5092 36.6215 68.6421 36.7318C68.7735 36.8452 68.9278 36.9277 69.0938 36.9733C69.2599 37.0189 69.4337 37.0265 69.603 36.9956C69.7199 36.9839 69.8377 36.9839 69.9546 36.9956C70.583 36.9979 71.2009 37.1613 71.7518 37.4709C72.3027 37.7804 72.769 38.2263 73.1081 38.7677C73.4472 39.3091 73.6484 39.9288 73.6932 40.5702C73.7381 41.2117 73.6251 41.8544 73.3647 42.4397C73.2523 42.6892 73.2271 42.9707 73.2932 43.237C73.3593 43.5033 73.5128 43.7383 73.728 43.9026C74.2076 44.2543 74.5996 44.7165 74.8724 45.2518C75.1452 45.7872 75.2911 46.3807 75.2983 46.9844C75.2976 47.5867 75.1569 48.1803 74.8879 48.7161C74.619 49.2519 74.2295 49.7146 73.7515 50.0661Z" fill="#F0C244"/>
<path d="M66.146 39.3939C65.9974 39.8811 65.7463 40.329 65.4101 40.7061C65.074 41.0832 64.6612 41.3802 64.2007 41.5763C64.0097 41.6627 63.8448 41.7998 63.723 41.9733C63.6012 42.1468 63.5268 42.3504 63.5077 42.5632C63.4886 42.7759 63.5254 42.99 63.6142 43.1833C63.7031 43.3767 63.8408 43.5422 64.0132 43.6628C65.0318 44.3196 66.2077 44.6764 67.4116 44.694C68.2193 44.7018 69.019 44.5299 69.7554 44.1904C70.0397 44.06 70.2619 43.8194 70.3728 43.5214C70.4838 43.2234 70.4746 42.8925 70.3472 42.6016C70.2197 42.3106 69.9846 42.0833 69.6934 41.9697C69.4022 41.8561 69.0788 41.8656 68.7944 41.996C68.2961 42.2301 67.7472 42.3292 67.2007 42.2838C67.8138 41.6048 68.2527 40.7808 68.478 39.8855C68.5402 39.5675 68.4763 39.2372 68.3005 38.9674C68.1247 38.6975 67.8513 38.5102 67.5405 38.4466C67.2297 38.383 66.907 38.4483 66.6432 38.6282C66.3795 38.8081 66.1964 39.0878 66.1343 39.4059L66.146 39.3939Z" fill="#F0C244"/>
<path d="M68.9468 52.2965C68.1531 52.3243 67.3736 52.0763 66.7352 51.593C66.0968 51.1096 65.6372 50.4193 65.4311 49.6344C65.4311 49.5025 65.3726 49.3946 65.3608 49.3467C65.2909 49.0286 65.1004 48.752 64.8312 48.5778C64.5619 48.4035 64.2361 48.3458 63.9253 48.4173C63.6145 48.4889 63.3442 48.6838 63.1739 48.9593C63.0035 49.2348 62.9472 49.5682 63.0171 49.8863C63.0171 50.0182 63.0757 50.1501 63.1108 50.282C63.3569 51.4811 63.5679 53.5076 62.9233 54.407C62.7961 54.5851 62.7194 54.7958 62.7016 55.0157C62.6838 55.2356 62.7257 55.4563 62.8226 55.6534C62.9196 55.8506 63.0678 56.0165 63.251 56.133C63.4341 56.2495 63.6452 56.312 63.8608 56.3136C64.0447 56.3155 64.2265 56.273 64.3914 56.1897C64.5563 56.1064 64.6997 55.9845 64.81 55.8339C65.2285 55.2057 65.501 54.4879 65.6069 53.7355C66.5841 54.37 67.7192 54.703 68.8765 54.6948C69.1873 54.6948 69.4853 54.5684 69.7051 54.3435C69.9249 54.1187 70.0483 53.8137 70.0483 53.4956C70.0483 53.1776 69.9249 52.8726 69.7051 52.6477C69.4853 52.4228 69.1873 52.2965 68.8765 52.2965H68.9468Z" fill="#F0C244"/>
<path d="M70.7163 44.9219C70.5834 45.0032 70.4675 45.1107 70.3754 45.2381C70.2833 45.3655 70.2168 45.5104 70.1798 45.6642C70.1427 45.8181 70.1359 45.978 70.1596 46.1346C70.1833 46.2912 70.2371 46.4415 70.3179 46.5767C70.3179 46.5767 70.939 47.7758 70.4936 48.1955C70.3838 48.307 70.2966 48.4396 70.2371 48.5857C70.1776 48.7318 70.147 48.8886 70.147 49.0469C70.147 49.2052 70.1776 49.3619 70.2371 49.508C70.2966 49.6542 70.3838 49.7868 70.4936 49.8983C70.6031 50.0094 70.733 50.0973 70.8758 50.157C71.0186 50.2167 71.1714 50.2469 71.3257 50.246C71.6331 50.2447 71.9277 50.1198 72.146 49.8983C73.564 48.4473 72.9311 46.3009 72.3218 45.3296C72.1613 45.0581 71.9022 44.8628 71.6013 44.7864C71.3004 44.71 70.9822 44.7587 70.7163 44.9219Z" fill="#F0C244"/>
<path d="M63.1108 37.1156C63.2349 37.1616 63.3656 37.186 63.4975 37.1875C63.7432 37.1882 63.9829 37.1098 64.1827 36.9635C64.3824 36.8171 64.5322 36.6103 64.6108 36.3721C64.6108 36.3721 64.7046 36.1203 65.0444 36.1563C65.3552 36.1992 65.67 36.114 65.9194 35.9195C66.1688 35.725 66.3325 35.437 66.3745 35.119C66.4165 34.801 66.3332 34.4789 66.1431 34.2237C65.953 33.9684 65.6716 33.8009 65.3608 33.758C64.7365 33.6614 64.0989 33.7922 63.5592 34.1275C63.0195 34.4628 62.612 34.9813 62.4077 35.5927C62.3058 35.8901 62.3224 36.2167 62.454 36.5017C62.5856 36.7867 62.8215 37.0072 63.1108 37.1156Z" fill="#F0C244"/>
<path d="M63.6616 57.6566C63.5077 57.6469 63.3533 57.6683 63.2075 57.7198C63.0617 57.7712 62.9272 57.8516 62.8118 57.9563C62.6964 58.061 62.6023 58.188 62.535 58.33C62.4677 58.472 62.4284 58.6262 62.4194 58.7838C62.4099 58.9462 62.4327 59.1089 62.4866 59.262C62.5405 59.4151 62.6242 59.5554 62.7327 59.6743C62.8413 59.7932 62.9723 59.8882 63.1179 59.9537C63.2635 60.0191 63.4206 60.0535 63.5796 60.0549C63.8634 60.0685 64.1386 60.1596 64.3765 60.3187C64.4706 60.5268 64.6211 60.703 64.8101 60.8262C64.9991 60.9495 65.2187 61.0147 65.4429 61.0142C65.6124 61.0129 65.7799 60.9762 65.935 60.9062C66.2163 60.771 66.4335 60.5271 66.539 60.228C66.6445 59.9289 66.6296 59.5992 66.4975 59.3114C66.1978 58.8149 65.7811 58.4033 65.2857 58.1142C64.7902 57.8251 64.2318 57.6678 63.6616 57.6566Z" fill="#F0C244"/>
<path d="M68.8004 77.8764H51.5269C50.1441 77.8764 49.0308 76.7514 49.0308 75.3803V72.9662C49.0308 69.4037 47.5191 65.9467 44.8824 63.474C40.4176 59.2787 37.9097 53.6068 37.8277 47.4779C37.7457 41.4428 40.0308 35.7592 44.2496 31.4818C48.4683 27.2045 54.1168 24.8373 60.1402 24.8256C60.1519 24.8256 60.1637 24.8256 60.1637 24.8256C66.1285 24.8256 71.7301 27.1459 75.9488 31.3646C80.1793 35.5834 82.4996 41.1967 82.4996 47.1732C82.4996 53.3373 79.9097 59.2904 75.4097 63.5092C72.7965 65.9467 71.2965 69.4037 71.2965 72.9779V75.3803C71.2965 76.7514 70.1832 77.8764 68.8004 77.8764ZM60.1637 27.099C60.1519 27.099 60.1519 27.099 60.1402 27.099C54.7262 27.1107 49.6519 29.2318 45.8668 33.0756C42.0816 36.9193 40.0308 42.0287 40.1012 47.4545C40.1715 52.9506 42.4215 58.06 46.441 61.8217C49.5347 64.7279 51.3043 68.7943 51.3043 72.9779V75.392C51.3043 75.5209 51.4097 75.6146 51.5269 75.6146H68.8004C68.9293 75.6146 69.023 75.5092 69.023 75.392V72.9896C69.023 68.7826 70.7808 64.7279 73.8512 61.8568C77.9058 58.0717 80.2262 52.7279 80.2262 47.185C80.2262 41.8178 78.1402 36.7787 74.3433 32.9818C70.5582 29.185 65.5191 27.099 60.1637 27.099Z" fill="#F0C244"/>
<path d="M51.7791 80.6395L68.3488 80.6395" stroke="#F0C244" stroke-width="3" stroke-linecap="round"/>
<path d="M28 33L36.5132 36.0485" stroke="#F0C244" stroke-width="3" stroke-linecap="round"/>
<path d="M93.5132 33L85 36.0485" stroke="#F0C244" stroke-width="3" stroke-linecap="round"/>
<path d="M92.5132 63.0485L84 60" stroke="#F0C244" stroke-width="3" stroke-linecap="round"/>
<path d="M27 63.0485L35.5132 60" stroke="#F0C244" stroke-width="3" stroke-linecap="round"/>
<path d="M25 48H34.0426" stroke="#F0C244" stroke-width="3" stroke-linecap="round"/>
<path d="M86 48H95.0426" stroke="#F0C244" stroke-width="3" stroke-linecap="round"/>
<path d="M51.7791 85L68.3488 85" stroke="#F0C244" stroke-width="3" stroke-linecap="round"/>
<path d="M53 88H67V90C67 91.1046 66.1046 92 65 92H55C53.8954 92 53 91.1046 53 90V88Z" fill="#F0C244"/>
<path d="M132.808 77.584C139.293 77.584 142.536 75.3653 142.536 70.928C142.536 69.5627 142.237 68.4107 141.64 67.472C141.085 66.4907 140.317 65.6587 139.336 64.976C138.355 64.2507 137.224 63.632 135.944 63.12C134.707 62.608 133.384 62.096 131.976 61.584C130.355 61.0293 128.819 60.4107 127.368 59.728C125.917 59.0027 124.659 58.1707 123.592 57.232C122.525 56.2507 121.672 55.0987 121.032 53.776C120.435 52.4533 120.136 50.8533 120.136 48.976C120.136 45.0933 121.459 42.064 124.104 39.888C126.749 37.712 130.397 36.624 135.048 36.624C137.736 36.624 140.168 36.9227 142.344 37.52C144.563 38.0747 146.184 38.6933 147.208 39.376L145.224 44.432C144.328 43.8773 142.984 43.344 141.192 42.832C139.443 42.2773 137.395 42 135.048 42C133.853 42 132.744 42.128 131.72 42.384C130.696 42.64 129.8 43.024 129.032 43.536C128.264 44.048 127.645 44.7093 127.176 45.52C126.749 46.288 126.536 47.2053 126.536 48.272C126.536 49.4667 126.771 50.4693 127.24 51.28C127.709 52.0907 128.371 52.816 129.224 53.456C130.077 54.0533 131.059 54.608 132.168 55.12C133.32 55.632 134.579 56.144 135.944 56.656C137.864 57.424 139.613 58.192 141.192 58.96C142.813 59.728 144.2 60.6453 145.352 61.712C146.547 62.7787 147.464 64.0587 148.104 65.552C148.744 67.0027 149.064 68.7733 149.064 70.864C149.064 74.7467 147.635 77.7333 144.776 79.824C141.96 81.9147 137.971 82.96 132.808 82.96C131.059 82.96 129.437 82.832 127.944 82.576C126.493 82.3627 125.192 82.1067 124.04 81.808C122.888 81.4667 121.885 81.1253 121.032 80.784C120.221 80.4 119.581 80.08 119.112 79.824L120.968 74.704C121.949 75.2587 123.443 75.8773 125.448 76.56C127.453 77.2427 129.907 77.584 132.808 77.584ZM168.215 63.696C169.495 64.6773 170.839 65.8933 172.247 67.344C173.697 68.7947 175.105 70.3733 176.471 72.08C177.879 73.744 179.201 75.4507 180.439 77.2C181.676 78.9067 182.721 80.5067 183.575 82H176.599C175.703 80.5067 174.657 78.992 173.463 77.456C172.311 75.8773 171.095 74.384 169.815 72.976C168.535 71.5253 167.233 70.2027 165.911 69.008C164.588 67.8133 163.329 66.8107 162.135 66V82H156.183V33.36L162.135 32.336V62.672C163.159 61.648 164.289 60.5173 165.527 59.28C166.764 58.0427 167.98 56.784 169.175 55.504C170.369 54.224 171.5 53.008 172.567 51.856C173.633 50.6613 174.551 49.616 175.319 48.72H182.295C181.313 49.7867 180.247 50.96 179.095 52.24C177.943 53.52 176.748 54.8213 175.511 56.144C174.273 57.424 173.015 58.7253 171.735 60.048C170.497 61.328 169.324 62.544 168.215 63.696ZM195.572 82H189.62V48.72H195.572V82ZM192.564 42.704C191.497 42.704 190.58 42.3627 189.812 41.68C189.087 40.9547 188.724 39.9947 188.724 38.8C188.724 37.6053 189.087 36.6667 189.812 35.984C190.58 35.2587 191.497 34.896 192.564 34.896C193.631 34.896 194.527 35.2587 195.252 35.984C196.02 36.6667 196.404 37.6053 196.404 38.8C196.404 39.9947 196.02 40.9547 195.252 41.68C194.527 42.3627 193.631 42.704 192.564 42.704ZM215.792 82.64C212.122 82.5547 209.52 81.7653 207.984 80.272C206.448 78.7787 205.68 76.4533 205.68 73.296V33.36L211.632 32.336V72.336C211.632 73.3173 211.717 74.128 211.888 74.768C212.058 75.408 212.336 75.92 212.72 76.304C213.104 76.688 213.616 76.9867 214.256 77.2C214.896 77.3707 215.685 77.52 216.624 77.648L215.792 82.64ZM233.292 82.64C229.622 82.5547 227.02 81.7653 225.484 80.272C223.948 78.7787 223.18 76.4533 223.18 73.296V33.36L229.132 32.336V72.336C229.132 73.3173 229.217 74.128 229.388 74.768C229.558 75.408 229.836 75.92 230.22 76.304C230.604 76.688 231.116 76.9867 231.756 77.2C232.396 77.3707 233.185 77.52 234.124 77.648L233.292 82.64Z" fill="#EC7210"/>
<path d="M269.096 37.648H275.304V82H269.096V61.52H247.4V82H241.192V37.648H247.4V56.144H269.096V37.648ZM312.429 81.04C311.063 81.3813 309.25 81.744 306.989 82.128C304.77 82.512 302.189 82.704 299.245 82.704C296.685 82.704 294.53 82.3413 292.781 81.616C291.031 80.848 289.623 79.7813 288.557 78.416C287.49 77.0507 286.722 75.4507 286.253 73.616C285.783 71.7387 285.549 69.6693 285.549 67.408V48.72H291.501V66.128C291.501 70.1813 292.141 73.0827 293.421 74.832C294.701 76.5813 296.855 77.456 299.885 77.456C300.525 77.456 301.186 77.4347 301.869 77.392C302.551 77.3493 303.191 77.3067 303.789 77.264C304.386 77.1787 304.919 77.1147 305.389 77.072C305.901 76.9867 306.263 76.9013 306.477 76.816V48.72H312.429V81.04ZM328.635 50.192C329.36 49.7227 330.448 49.232 331.899 48.72C333.392 48.208 335.099 47.952 337.019 47.952C339.408 47.952 341.52 48.3787 343.355 49.232C345.232 50.0853 346.811 51.28 348.091 52.816C349.371 54.352 350.331 56.1867 350.971 58.32C351.653 60.4533 351.995 62.8 351.995 65.36C351.995 68.048 351.589 70.48 350.779 72.656C350.011 74.7893 348.901 76.6027 347.451 78.096C346 79.5893 344.251 80.7413 342.203 81.552C340.155 82.3627 337.851 82.768 335.291 82.768C332.517 82.768 330.064 82.576 327.931 82.192C325.797 81.808 324.048 81.424 322.683 81.04V33.36L328.635 32.336V50.192ZM328.635 76.816C329.232 76.9867 330.064 77.1573 331.131 77.328C332.24 77.456 333.605 77.52 335.227 77.52C338.427 77.52 340.987 76.4747 342.907 74.384C344.827 72.2507 345.787 69.2427 345.787 65.36C345.787 63.6533 345.616 62.0533 345.275 60.56C344.933 59.0667 344.379 57.7867 343.611 56.72C342.843 55.6107 341.84 54.7573 340.603 54.16C339.408 53.52 337.957 53.2 336.251 53.2C334.629 53.2 333.136 53.4773 331.771 54.032C330.405 54.5867 329.36 55.1627 328.635 55.76V76.816Z" fill="#F0C244"/>
</svg>
